<svg xmlns="http://www.w3.org/2000/svg" width="110.79" height="110.86" viewBox="0 0 110.79 110.86">
  <defs>
    <style>
      .cls-1 {
        fill: #b1a8a8;
      }
    </style>
  </defs>
  <g id="Layer_2" data-name="Layer 2">
    <g id="Layer_1-2" data-name="Layer 1">
      <path class="cls-1" d="M55.15,0A55.52,55.52,0,0,0,12.43,20c3.48.22,7.09.5,10.32,2.05,1.43.69,2.78,1.23,2.09,3.14a5.79,5.79,0,0,1-2.43,2.87c-1.2.61-2.7.2-3.94-.09a12.5,12.5,0,0,0-4.33-.49.87.87,0,0,0-.52.19c-.89.83,1.09,1.2,1.38,1.24a22.2,22.2,0,0,0,2.3.15c5,.22,10,.34,15,.55,3.25.13,5.31-.14,8.51.23a15.24,15.24,0,0,1,5,1.11,3.27,3.27,0,0,1,1.91,2.7c.06,1.49-4.23,2.38-5.82,2.44l-8.3.3c-2.9.11-5.83.06-8.73.27a4.94,4.94,0,0,0-1.58.2,1.28,1.28,0,0,0-.44,1.56c.2.26.72.24,1,.27.81.06,1.63-.09,2.44-.07,1.38,0,2.77,0,4.15,0,2.76-.06,5.51-.2,8.26-.35,1.93-.05,3.84-.26,5.76-.37,1.6-.1,8.93.51,5.69,3.77-2.74,2.76-6,2.54-9,2.79-6,.51-12.1,1-18.14,1.64-.5,0-1,.1-1.49.18a.42.42,0,0,0-.29.12.65.65,0,0,0-.1.34,1.28,1.28,0,0,0,.2,1.06,1,1,0,0,0,.76.15l4.42-.37c1.88-.16,3.75-.3,5.63-.49,3.76-.3,7.36-.58,11.13-.9a4.33,4.33,0,0,1,2.86.89c2.62,2.26-2.72,4.47-4,4.67-3.26.48-6.51.84-9.78,1.18-2.22.22-4.43.41-6.65.58-2,.16-3.63-.07-6.13.3a.93.93,0,0,0-.69.69.7.7,0,0,0,.19.77,1.72,1.72,0,0,0,1.13.29c1.64-.07,3.28-.16,4.92-.3,2.89-.24,5.77-.54,8.65-.85.52,0,1-.12,1.56-.16s2.22.51,2.43,1.11c1.09,3-8.16,4.43-9.54,4.86a69.19,69.19,0,0,1-12.72,2.94A71.93,71.93,0,0,1,0,62.89a55.66,55.66,0,0,0,30.41,42.58A18.6,18.6,0,0,1,26.6,94.25c.36-9.32,2.22-16.06,8.13-23.15A53.61,53.61,0,0,1,46,61c3.87-2.6,7.91-5.34,12.49-6.48,1.94-.48,3.7-1,4.32,1.27a6.94,6.94,0,0,1-.51,4.53c-.8,1.51-2.62,2.29-4.09,3a17.68,17.68,0,0,0-4.77,2.92,1.27,1.27,0,0,0-.4.58c-.34,1.45,2,.26,2.28.07.85-.5,1.64-1.08,2.45-1.65C63,61.57,68.21,57.8,73.46,54.11c3.42-2.4,5.35-4.25,8.88-6.4a21.67,21.67,0,0,1,5.87-2.86,3.78,3.78,0,0,1,3.81,1c1.1,1.33-2.68,5.48-4.26,6.77l-8.28,6.73c-2.9,2.36-5.93,4.58-8.75,7a6.61,6.61,0,0,0-1.48,1.41c-.28.51,0,1.65.63,1.78.38.08.9-.34,1.2-.53.88-.57,1.6-1.34,2.45-2,1.43-1,2.85-2.13,4.24-3.23,2.79-2.19,5.51-4.46,8.22-6.74,1.93-1.54,3.75-3.22,5.63-4.81,1.57-1.34,9.5-6.48,8.43-1-.9,4.67-4.34,7-7.24,9.54C87,66.08,81.13,71.26,75.37,76.52c-.47.43-.94.87-1.39,1.32a.59.59,0,0,0-.21.34.65.65,0,0,0,.12.4c.22.37.51.79.94.81a1.36,1.36,0,0,0,.89-.44L80,75.17c1.8-1.61,3.62-3.2,5.41-4.82,3.64-3.21,7.14-6.26,10.77-9.49a6,6,0,0,1,3.54-1.4c4.25,0,.31,6.23-.89,7.43-3,3-6.08,5.84-9.2,8.69-2.11,1.93-4.24,3.82-6.39,5.7-1.93,1.7-3.76,2.76-6.06,5a1.16,1.16,0,0,0-.24,1.18.74.74,0,0,0,.72.55A2.36,2.36,0,0,0,79,87.45c1.63-1.34,3.24-2.7,4.82-4.1,2.79-2.46,5.53-5,8.27-7.51.49-.45,1-.92,1.49-1.36s2.62-1.26,3.25-.87c3.23,2-5.29,10.43-6.41,11.9a97.43,97.43,0,0,1-11,12.59,106.82,106.82,0,0,1-17.65,12.76A55.63,55.63,0,0,0,55.15,0Z"/>
    </g>
  </g>
</svg>
