<svg xmlns="http://www.w3.org/2000/svg" width="111.27" height="111.27" viewBox="0 0 111.27 111.27">
  <defs>
    <style>
      .cls-1 {
        fill: #102e64;
      }
    </style>
  </defs>
  <g id="Layer_2" data-name="Layer 2">
    <g id="Layer_1-2" data-name="Layer 1">
      <path class="cls-1" d="M55.64,0a55.64,55.64,0,1,0,0,111.27,56.47,56.47,0,0,0,6.67-.41A55.63,55.63,0,0,0,55.64,0Zm6.8,81.65a23,23,0,0,1-2.52.48,24.71,24.71,0,0,1-3.56.24q-4,0-5.76-1.32T48.83,76V43.4a22.78,22.78,0,0,1,2.53-.48,24.61,24.61,0,0,1,3.56-.24c2.66,0,4.59.44,5.76,1.32s1.76,2.57,1.76,5.08ZM61,35.23a7.25,7.25,0,0,1-5.4,2.08,7.29,7.29,0,0,1-5.41-2.08,7.05,7.05,0,0,1-2-5.13,7,7,0,0,1,2-5.12,7.25,7.25,0,0,1,5.41-2.08A7.21,7.21,0,0,1,61,25a7,7,0,0,1,2,5.12A7.05,7.05,0,0,1,61,35.23Z"/>
    </g>
  </g>
</svg>
