<svg xmlns="http://www.w3.org/2000/svg" width="111.27" height="111.27" viewBox="0 0 111.27 111.27">
  <defs>
    <style>
      .cls-1 {
        fill: #102e64;
      }
    </style>
  </defs>
  <g id="Layer_2" data-name="Layer 2">
    <g id="Layer_1-2" data-name="Layer 1">
      <path class="cls-1" d="M55.64,0a55.64,55.64,0,1,0,0,111.27,56.47,56.47,0,0,0,6.67-.41A55.63,55.63,0,0,0,55.64,0Zm16,79.49a56.13,56.13,0,0,0-25.5,6.15c-2.34,1.22-5.36,1.26-8.1,1.55-.73.08-2.27-1-2.24-1.4a4.06,4.06,0,0,1,1.53-2.56c.84-.65,2.08-.76,3.09-1.22,3.35-1.53,7.07-2.57,9.07-6.07.37-.64.71-1.73.41-2.18a2.68,2.68,0,0,0-2.16-.69c-3.69.41-7.36,1.09-11,1.43a66.19,66.19,0,0,1-10.24.33c-1.11-.07-2.12-1.62-3.17-2.49a23.36,23.36,0,0,1,3-2.27c.68-.36,1.65-.16,2.46-.35,4.7-1.06,9.42-2.09,14.08-3.32.78-.2,1.33-1.28,2-2a8.28,8.28,0,0,0-2.52-1.23c-3.32-.32-6.68-.32-10-.66-4-.4-7.95-.88-11.86-1.65-.95-.19-2.45-1.89-2.28-2.5.29-1,1.61-1.93,2.67-2.6.53-.34,1.45-.06,2.19-.05,6.69.12,13.38.26,20.07.36a12.18,12.18,0,0,0,2.12-.35l.28-.83c-1.21-.76-2.32-1.83-3.64-2.21-3.91-1.15-7.89-2-11.85-3a30.12,30.12,0,0,1-5.34-1.4c-2.22-1-2.26-3.11-.07-4.2a9.23,9.23,0,0,1,4.79-1c5.25.6,10.47,1.49,15.68,2.38,3.94.67,7.84,1.67,11.83.32,4.93-1.67,6.6-4.93,4.64-9.69-1.09-2.65-2.84-5-3.86-7.71a25.25,25.25,0,0,1-1.68-7.45c-.06-1,1.36-2.5,2.42-2.88.7-.25,2.24.9,2.93,1.78,1.18,1.52,1.77,3.52,3,5,5.93,7,11.7,14.21,18.13,20.75,3.37,3.44,4.88,7.18,5.84,11.62C90.53,67.19,82.73,79.3,71.69,79.49Zm29.75-7.37A5,5,0,0,1,97,75.34a32.71,32.71,0,0,1-5.81-1.23,53.76,53.76,0,0,0,3.4-12.63,50.92,50.92,0,0,0-.27-13c3.36.32,7.31.6,10.4.89,0,0,0,.59,0,.64C104.67,57.57,104.21,64.9,101.44,72.12Z"/>
    </g>
  </g>
</svg>
