<svg xmlns="http://www.w3.org/2000/svg" width="111.27" height="111.27" viewBox="0 0 111.27 111.27">
  <defs>
    <style>
      .cls-1 {
        fill: #b1a8a8;
      }
    </style>
  </defs>
  <g id="Layer_2" data-name="Layer 2">
    <g id="Layer_1-2" data-name="Layer 1">
      <path class="cls-1" d="M55.64,0a55.64,55.64,0,1,0,0,111.27,56.47,56.47,0,0,0,6.67-.41A55.63,55.63,0,0,0,55.64,0Zm45.42,75.13a1.81,1.81,0,0,1-1.89,1.7H92.8V60.31h2.07a2.06,2.06,0,0,0,2.06-2.06h0V35.53h2.25a1.8,1.8,0,0,1,1.88,1.72Zm-90.85,0V37.25h0a1.8,1.8,0,0,1,1.86-1.71h2.27V58.24a2.07,2.07,0,0,0,2.06,2.07h2.07V76.83H12.1A1.83,1.83,0,0,1,10.21,75.09ZM22.6,60.31h2.06a2.07,2.07,0,0,0,2.07-2.06h0V35.53h4.13V58.24a2.06,2.06,0,0,0,2.06,2.06H35V76.82H22.6Zm16.52,0h2.06a2.07,2.07,0,0,0,2.07-2.06h0V35.53h8.26V58.24a2.06,2.06,0,0,0,2.06,2.06h2.07V76.83H39.12Zm20.65,0h2.06a2.07,2.07,0,0,0,2.07-2.06h0V35.53H68V58.24a2.06,2.06,0,0,0,2.06,2.06h2.06V76.82H59.77Zm16.51,0h2.07a2.07,2.07,0,0,0,2.07-2.06h0V35.53h4.13V58.24a2.05,2.05,0,0,0,2.06,2.06h2.06V76.82H76.28Z"/>
    </g>
  </g>
</svg>
